<?xml version="1.0" encoding="UTF-8"?>
<svg xmlns="http://www.w3.org/2000/svg" width="16" height="16" viewBox="0 0 16 16">
  <style>
    .ColorScheme-Text { fill: #dedede; }
  </style>
  <!-- stem -->
  <path class="ColorScheme-Text" d="M8 1c0 0-1 0.5-1 1.5C7 3 7.5 3.5 8 3.5S9 3 9 2.5C9 1.5 8 1 8 1z"/>
  <!-- leaf -->
  <path class="ColorScheme-Text" d="M6.5 2.5c-1-0.5-2.5 0-2.5 0s0.5 1.5 1.5 2c0.7 0.3 1.5 0 1.5 0S7.5 3 6.5 2.5z"/>
  <path class="ColorScheme-Text" d="M9.5 2.5c1-0.5 2.5 0 2.5 0s-0.5 1.5-1.5 2c-0.7 0.3-1.5 0-1.5 0S8.5 3 9.5 2.5z"/>
  <!-- tomato body -->
  <path class="ColorScheme-Text" d="M8 4C4.7 4 2 6.5 2 9.5S4.7 15 8 15s6-2.5 6-5.5S11.3 4 8 4zm0 1c2.8 0 5 2 5 4.5S10.8 14 8 14 3 12 3 9.5 5.2 5 8 5z"/>
</svg>
