<?xml version="1.0" encoding="UTF-8"?><svg xmlns="http://www.w3.org/2000/svg" xmlns:xlink="http://www.w3.org/1999/xlink" viewBox="0 0 100 100"><defs><style>.cls-1,.cls-2{fill:none;}.cls-2{stroke:#752c28;stroke-width:4px;}.cls-2,.cls-3{stroke-linecap:round;stroke-linejoin:round;}.cls-4{isolation:isolate;}.cls-5{fill:url(#_称未設定グラデーション_72);}.cls-6{fill:#fff;opacity:.5;}.cls-6,.cls-7{mix-blend-mode:overlay;}.cls-3{fill:#53894c;stroke:#445641;stroke-width:3.77px;}.cls-7{fill:#020202;opacity:.3;}</style><linearGradient id="_称未設定グラデーション_72" x1="50" y1="31.22" x2="50" y2="81.75" gradientTransform="matrix(1, 0, 0, 1, 0, 0)" gradientUnits="userSpaceOnUse"><stop offset="0" stop-color="#e96950"/><stop offset=".85" stop-color="#e74238"/></linearGradient><filter id="desaturate"><feColorMatrix type="saturate" values="0"/></filter></defs><g class="cls-4"><g id="_イヤー_1" filter="url(#desaturate)"><g><path class="cls-5" d="M50,85c29.5,0,40.6-23.16,35.63-39.47-5.27-17.32-22.2-22.99-34.24-18.99-.45,.15-.92,.22-1.4,.22h0c-.47,0-.95-.07-1.4-.22-12.04-3.99-28.96,1.67-34.24,18.99-4.96,16.3,6.13,39.47,35.63,39.47Z"/><path class="cls-7" d="M85.63,45.53c-2.13-7.01-6.18-12.11-11.03-15.44,1.66,2.42,3.04,5.21,4.01,8.41,4.96,16.3-6.13,39.47-35.63,39.47-10.14,0-18.11-2.74-24-6.99,5.79,8.03,16.02,14.02,31.02,14.02,29.5,0,40.6-23.16,35.63-39.47Z"/><path class="cls-2" d="M50,85c29.5,0,40.6-23.16,35.63-39.47-5.27-17.32-22.2-22.99-34.24-18.99-.45,.15-.92,.22-1.4,.22h0c-.47,0-.95-.07-1.4-.22-12.04-3.99-28.96,1.67-34.24,18.99-4.96,16.3,6.13,39.47,35.63,39.47Z"/><path class="cls-3" d="M64.87,35.61c-.6-2.72-2.22-5.08-4.37-6.87-.43-.36-.88-.7-1.35-1.01,.83-.69,1.57-1.49,2.19-2.4,1.43-2.05,2.23-4.69,1.57-7.15-2.68,2.41-6.07,3.91-9.56,4.47-1.64-2.48-2.72-5.14-3.35-7.66-.63,2.51-1.7,5.16-3.33,7.63-2.92-.48-5.78-1.57-8.17-3.39-.46-.33-.87-.69-1.33-1.05-.11,.4-.18,.8-.22,1.22-.15,3.36,1.49,6.25,3.95,8.3-.49,.32-.96,.66-1.4,1.04-2.79,2.33-4.83,5.81-4.55,9.51,2.71-3.4,6.53-5.62,10.65-6.54,2.12,3.21,3.51,6.67,4.33,9.92,.82-3.27,2.22-6.74,4.36-9.96,1.24,.27,2.45,.65,3.62,1.17,2.12,.91,4.23,2.32,5.87,4.03,.44,.43,.84,.91,1.26,1.38,.07-.88,.01-1.77-.17-2.64Z"/><path class="cls-6" d="M18.85,55.31c-.14-2.54,.12-5.15,.88-7.68,.75-2.53,2.03-4.97,3.85-7.06,.89-1.07,2.49-1.2,3.54-.29,1.15,.98,1.12,2.81-.04,3.77-1.54,1.29-2.83,2.99-3.75,4.93-.93,1.95-1.51,4.13-1.73,6.39-.18,1.66-2.64,1.6-2.73-.06h0Z"/></g><rect class="cls-1" width="100" height="100"/></g></g><!-- stop badge (outside desaturate filter) --><circle cx="78" cy="75" r="12" fill="#000" opacity="0.55"/><rect x="71.5" y="68.5" width="13" height="13" rx="1.5" fill="#fff"/></svg>
